<svg xmlns="http://www.w3.org/2000/svg" xmlns:xlink="http://www.w3.org/1999/xlink" viewBox="0 0 1920 1080"><defs><style>.a{fill:#fff;}.b{isolation:isolate;}.c{fill:#4699cf;}.d{fill:#63a7da;}.e{fill:#bf9d82;}.f{opacity:0.7;}.g{fill:#cec1b2;}.h{mask:url(#a);}.i{fill:#c0c8cc;}.j{fill:#5c44a0;opacity:0.45;}.j,.n{mix-blend-mode:multiply;}.k{fill:#ec5a25;}.l{fill:#282f39;opacity:0.2;}.m{fill:#d8a568;}.n{opacity:0.3;}.o{fill:#6b53af;}.p{fill:#f7bf7c;}.q{fill:#e6ba7d;}.r{mask:url(#b);}</style><mask id="a" x="-377.28" y="0" width="2297.28" height="1080.19" maskUnits="userSpaceOnUse"><rect class="a" width="1920" height="1080.19"/></mask><mask id="b" x="0" y="33" width="1970" height="655.52" maskUnits="userSpaceOnUse"><rect class="a" y="33" width="1920" height="655.52"/></mask></defs><title>basket</title><g class="b"><rect class="c" width="1920" height="655.52"/><rect class="d" x="768.51" width="18.31" height="653.98"/><rect class="d" x="1301.17" width="18.31" height="653.98"/><polygon class="d" points="1811.77 0 1799.56 0 1805.67 653.98 1817.88 653.98 1811.77 0"/><rect class="e" y="656.72" width="1920" height="423.28"/><g class="f"><rect class="g" y="673.73" width="1920" height="29.36"/><rect class="g" y="706.53" width="1920" height="41.35"/><rect class="g" y="751.89" width="1920" height="53.34"/><rect class="g" y="810.7" width="1920" height="65.32"/><rect class="g" y="882.8" width="1920" height="77.31"/><rect class="g" y="968.21" width="1920" height="89.3"/><rect class="g" y="1066.4" width="1920" height="13.6"/></g><path class="a" d="M1611.79,853.49c0-.39,0-0.78,0-1.17,0-.55-0.07-1.1-0.12-1.66,0-.37,0-0.75-0.08-1.12-0.06-.56-0.15-1.12-0.23-1.69-0.05-.37-0.09-0.73-0.16-1.1-0.1-.58-0.23-1.15-0.35-1.73-0.08-.39-0.15-0.78-0.24-1.17l-3.1-8.94c-6.41-14.11-19.62-27.08-37.81-38.52-17.68-11.11-40.18-20.84-66-28.83-25.27-7.82-53.94-14-84.73-18.29a744.3,744.3,0,0,0-195.06-.36c-30.84,4.14-59.57,10.25-84.93,18-25.9,7.89-48.5,17.54-66.3,28.58-18.32,11.37-31.67,24.29-38.23,38.38l-3.19,8.93c-0.21.85-.4,1.71-0.56,2.56h0c0,0.14,0,.28-0.07.42l-0.07.41c-0.1.58-.19,1.16-0.26,1.75v0c0,0.08,0,.16,0,0.25,0,0.23-.06.47-0.08,0.7q-0.09.84-.14,1.68c0,0.31,0,.62-0.06.93,0,0.61,0,1.22,0,1.83,0,0.25,0,.49,0,0.74q0,1.21.11,2.42s0,0.06,0,.09c0,0.23,0,.46.07,0.69v0c0.05,0.57.11,1.14,0.19,1.72v0.08c0,0.17.05,0.34,0.08,0.51l0.07,0.46c0.08,0.51.17,1,.27,1.52v0.05l0,0.2c0.06,0.28.11,0.56,0.18,0.84,0.12,0.52.24,1,.38,1.55,0.09,0.33.17,0.66,0.26,1,0.17,0.59.36,1.19,0.55,1.78,0.07,0.21.13,0.42,0.2,0.63l0,0.11c0.05,0.15.12,0.31,0.17,0.46,0.22,0.6.44,1.21,0.68,1.81l0.07,0.18c0.1,0.25.21,0.5,0.32,0.74l0,0.08c0.21,0.5.43,1,.67,1.51l0.07,0.17,0.24,0.49,0.25,0.51q0.34,0.7.71,1.39l0.06,0.12,0.11,0.2,0.44,0.81c0.28,0.51.58,1,.88,1.53,0.19,0.31.37,0.63,0.56,0.94l0.15,0.24h0q0.48,0.76,1,1.52l0.45,0.68,0.13,0.18h0c0.22,0.32.45,0.63,0.68,0.95l0,0c0.3,0.42.59,0.84,0.9,1.26l0.45,0.58h0l0,0c0.28,0.36.56,0.72,0.85,1.08l0,0,0.56,0.71,0.67,0.81,0.14,0.17h0l1,1.19,0.26,0.31,0.79,0.88,0.47,0.51,1,1.1,0,0,0.8,0.84c0.41,0.42.83,0.83,1.25,1.24l0.67,0.66,0.18,0.18,0.34,0.33c0.81,0.78,1.65,1.55,2.5,2.32l0.08,0.07,0.68,0.6,0.24,0.21c0.57,0.5,1.14,1,1.73,1.49l0.67,0.55,0.51,0.42,0.66,0.53,1,0.85,1.25,1,0.34,0.26,1.3,1,0,0,0.18,0.14,1.23,0.92,0.66,0.47h0l1.44,1h0l0.36,0.26,1.31,0.91,0.52,0.35h0l1.51,1,0.59,0.39,1.41,0.91,0.33,0.21,1.56,1,0.19,0.12,1.53,0.94,0.71,0.42,1.1,0.66q1.44,0.86,2.93,1.7l0.09,0.05,0,0,1.49,0.85c1.12,0.63,2.27,1.25,3.42,1.87l1.19,0.64,0.08,0,0.74,0.38h0c1.27,0.66,2.56,1.33,3.87,2h0l0.23,0.12,0.9,0.44,0.74,0.36,0.06,0c1.08,0.53,2.17,1.06,3.28,1.58l0,0,1,0.47,0.86,0.4c1.1,0.51,2.21,1,3.34,1.51h0l0.09,0,2.11,0.92,3.33,1.42,2.21,0.92,3.64,1.46,2,0.8c1.46,0.57,2.94,1.12,4.43,1.68l1.4,0.53q2.88,1.06,5.84,2.08l0.39,0.14,0.22,0.07,1.25,0.42c1.44,0.49,2.89,1,4.36,1.46l0.45,0.15,1.71,0.55,0.16,0.05,4.1,1.3,0.5,0.16,1.64,0.5,0.46,0.14,4.15,1.23,0.45,0.13,0.9,0.26,1.29,0.37,4.82,1.34,2,0.56q2.87,0.77,5.8,1.51l0.85,0.22,0.32,0.08,1.35,0.33c1.74,0.43,3.48.86,5.24,1.28l0.65,0.16,1.18,0.27,0.74,0.17,4.7,1.07,0.6,0.14,1.74,0.38,0.66,0.14,4.56,1,0.49,0.1,1,0.2,1.78,0.36,4.87,1,2.87,0.55,5.11,0.93,2.31,0.41,0.39,0.07,0.86,0.14q2.84,0.49,5.72,1h0.06l1.24,0.21,1.36,0.21,5.39,0.82,1.37,0.21,1,0.14,0.82,0.11q3.08,0.44,6.19.86l0.19,0H1226l2.53,0.33,5.81,0.73,2.28,0.27,0.48,0.06,0.33,0,5.51,0.61,0.8,0.09,1.89,0.2,0.49,0,5.66,0.55,0.33,0,2.1,0.2,0.35,0q3.92,0.35,7.88.67l1.21,0.09q3.82,0.3,7.67.55l0.61,0,1.76,0.11,0.58,0,5.79,0.34,0.69,0,1.72,0.09,1.12,0.06,5.73,0.26,0.37,0,0.39,0,2.82,0.11,5.92,0.2,3.24,0.09q3.13,0.08,6.29.13l2.85,0.05q4.56,0.06,9.15.07,4.19,0,8.35,0l3.75-.05,4.54-.06,4.32-.11,3.91-.1,3.39-.12,4.78-.17,3-.14,5.14-.24,3.25-.19,4.78-.28,3.45-.24,4.5-.31,3.81-.3,4.07-.33,4.06-.37,3.73-.34,4.28-.44,3.44-.35,4.47-.51,3.16-.36,4.47-.56,3.07-.38,4.86-.67,2.58-.35c1.71-.24,3.4-0.5,5.09-0.76l2.27-.34c1.8-.28,3.58-0.57,5.36-0.86l1.9-.31c1.87-.31,3.72-0.64,5.57-1l1.59-.28c1.65-.3,3.28-0.61,4.91-0.91l2.05-.38,4.45-.88,2.39-.48,3.93-.83,2.8-.59,3.66-.82,2.94-.66,3.61-.86,2.87-.69,3.53-.89,2.83-.72,3.5-.94,2.73-.73,3.44-1,2.67-.76,3.42-1,2.55-.76,3.35-1.06,2.49-.79,3.24-1.08,2.46-.82,3.11-1.09,2.47-.87,2.92-1.08,2.51-.93,2.72-1.06,2.58-1,2.47-1,2.68-1.1,2.16-.93c1-.41,1.92-0.82,2.85-1.23l1.94-.88c0.93-.42,1.87-0.84,2.78-1.26l2.09-1,2.48-1.19,2.12-1.07,2.31-1.16,2.05-1.09,2.22-1.18,1.54-.86,0.49-.27,2.09-1.17,1.48-.87,0.51-.3c0.66-.39,1.33-0.78,2-1.17l1.39-.87,0.5-.31c0.64-.4,1.29-0.8,1.92-1.2l1.29-.85,0.52-.34c0.62-.41,1.24-0.81,1.84-1.22l1.18-.83,0.53-.37c0.59-.42,1.2-0.83,1.78-1.25l1.08-.8,0.55-.41c0.57-.42,1.14-0.84,1.7-1.27l1-.77,0.58-.46c0.53-.43,1.08-0.85,1.6-1.28l0.88-.74,0.59-.5c0.51-.43,1-0.86,1.53-1.3l0.79-.72,0.6-.55c0.48-.44,1-0.87,1.44-1.31l0.7-.69,0.64-.63c0.44-.43.89-0.85,1.31-1.29l0.62-.66,0.67-.71c0.4-.42.81-0.84,1.19-1.26l0.54-.62,0.7-.8c0.36-.41.73-0.82,1.07-1.23l0.5-.62,0.65-.81c0.31-.39.63-0.77,0.92-1.16l0.41-.56,0.65-.88c0.28-.39.58-0.77,0.84-1.16l0.35-.53,0.62-.94c0.25-.39.52-0.77,0.76-1.16l0.29-.49c0.2-.33.4-0.66,0.59-1s0.47-.77.68-1.16l0.24-.45c0.19-.34.36-0.68,0.54-1s0.42-.79.62-1.19l0.19-.41c0.17-.36.33-0.72,0.49-1.07s0.37-.8.54-1.2c0.05-.12.09-0.25,0.14-0.37,0.15-.37.29-0.75,0.44-1.12s0.32-.8.47-1.21c0-.11.07-0.22,0.11-0.33,0.14-.39.26-0.78,0.38-1.18s0.27-.8.39-1.21c0-.1,0-0.19.07-0.29,0.12-.41.21-0.82,0.32-1.24s0.22-.8.31-1.21,0.2-1,.29-1.53,0.16-.81.23-1.21,0.13-1,.19-1.55,0.11-.8.15-1.21,0.07-1,.09-1.57,0.06-.8.07-1.2S1611.8,854,1611.79,853.49Zm-37.68,29.84c-11.24,12.88-29.19,24.77-52.74,35-24.1,10.45-53.86,19.05-87.82,25.06a672.4,672.4,0,0,1-226.28-.42c-33.9-6.14-63.57-14.85-87.56-25.39-23.44-10.3-41.27-22.26-52.37-35.18-10.78-12.55-15.16-25.94-12.27-39.57l2.94-8.93c0.33-.75.69-1.49,1.07-2.23l0.37-.7c0.27-.51.54-1,0.83-1.52l0.46-.8q0.43-.72.88-1.44l0.49-.77c0.34-.52.69-1,1-1.55l0.43-.62c0.51-.72,1-1.44,1.6-2.15l0.09-.12q0.78-1,1.62-2l0.55-.64q0.63-.74,1.29-1.47l0.66-.72q0.65-.7,1.33-1.4l0.67-.69c0.51-.51,1-1,1.56-1.53l0.53-.51q1.08-1,2.21-2l0.28-.25q1-.87,2-1.73l0.78-.64,1.64-1.32,0.91-.71,1.64-1.25,0.94-.7,0.41-.31,1.53-1.09,0.68-.48q1.31-.91,2.66-1.81l0.87-.57,1.93-1.25,0.43-.28,0.73-.45,1.7-1,1.21-.73,1.82-1.07,1.14-.66,2.41-1.34L1102,793q1.52-.83,3.09-1.65l1-.53,2.22-1.13,1.21-.6,2.17-1.05,1.21-.58,2.39-1.11,1-.47q1.71-.78,3.46-1.54h0q1.81-.79,3.67-1.56l0.81-.33,2.88-1.17,1.11-.44,1.41-.56,0.68-.26q2.83-1.1,5.74-2.16l1-.34q2.72-1,5.5-1.93l1.08-.37q3-1,6.16-2l1.35-.43,1.8-.57q2.3-.71,4.64-1.39l0.56-.16q3.14-.92,6.35-1.8l1.17-.32q3.28-.89,6.63-1.74l1.5-.38q3.39-.85,6.85-1.67l0.84-.19q3.22-.75,6.5-1.46l0.93-.21,0.52-.11q3.41-.73,6.87-1.43l1.7-.34q3.57-.7,7.2-1.37l0.55-.1q3.52-.64,7.11-1.24l1.48-.25q3.7-.61,7.45-1.18l1.42-.21q4-.59,8-1.14l0.72-.09q4.51-.6,9.09-1.15l3.28-.37q3.41-.39,6.85-0.74l3.7-.36c21.28-2,43.58-3.14,66.55-3.09a665.92,665.92,0,0,1,90.11,6.14,491.15,491.15,0,0,1,78,17c23.68,7.4,44.25,16.4,60.34,26.65,16.52,10.53,28.4,22.45,34,35.38l2.84,8.94C1589.55,857.45,1585,870.83,1574.11,883.33Z"/><polygon class="a" points="1913.19 850.99 403.82 850.99 415.25 837.54 1913.19 837.54 1913.19 850.99"/><polygon class="a" points="374.76 928.22 -10.13 928.22 -6.98 914.77 374.76 914.77 374.76 928.22"/><polygon class="a" points="460.77 782.29 -10.13 782.29 -6.48 768.84 470.77 768.84 460.77 782.29"/><polygon class="a" points="358.18 924.92 455.96 768.86 472.34 769.4 374.5 928.18 358.18 924.92"/><g class="h"><path class="a" d="M264.37,671.8H7.62L-377.28,1080l659.65-3c145.24,3,440.28-71.09,459.54-208.69C764.81,687,381.13,671.8,264.37,671.8ZM723.72,864.13c-17.31,123.65-302.1,197.44-426.93,198.22H-296L63.89,687.5H294.61C399.52,687.5,744.29,701.19,723.72,864.13Z"/></g><polygon class="c" points="237 670.13 0 907 0 0 237 0 237 670.13"/><polygon class="d" points="1920 541.5 244 543.5 0 759.5 0 737.41 236 527.41 1920 527.41 1920 541.5"/><polygon class="d" points="1913.19 240.5 245 240.5 0 240.5 0 226.41 245 226.41 1913.19 226.41 1913.19 240.5"/><polygon class="d" points="247.16 0 228.84 0 228.84 657.98 247.16 650.98 247.16 0"/><path class="i" d="M584.57,928c-0.08.08-.14,0.17-0.22,0.25C584.43,928.18,584.49,928.1,584.57,928Z"/><polygon class="j" points="1921 677.5 242 677.5 -5 937.5 -3 890 237 650.12 1921 650.12 1921 677.5"/><polygon class="k" points="1920 670.5 239 670.5 0 921.5 -1 883 237 643.12 1920 643.12 1920 670.5"/><polygon class="l" points="238 671.13 0 921 0 0 237 0 238 671.13"/><path class="j" d="M1177.71,556.79V537.42h120v19.37h-120Zm120,14V589h-120V570.83h120Zm-120-46.27v-23h120v23h-120Zm0-32.22v-23h120v23h-120Zm0-32.22v-23h120v23h-120Zm0-32.22V405h120v23h-120Zm0-32.22v-23h120v23h-120Zm0,207.35h120v18.17h-120V603.05Zm120-262.53v23h-120v-23h120Zm-120,312.92v-17h120v17h-120Zm120-342.2v20h-120v-20h-12.1V682.72h0a12.1,12.1,0,0,0,12.1-12.1v-7.93h120v20h0A13.29,13.29,0,0,0,1311,669.42V311.24h-13.29Z"/><path class="j" d="M1339.16,556.79V537.42h120v19.37h-120Zm120,14V589h-120V570.83h120Zm-120-46.27v-23h120v23h-120Zm0-32.22v-23h120v23h-120Zm0-32.22v-23h120v23h-120Zm0-32.22V405h120v23h-120Zm0-32.22v-23h120v23h-120Zm0,207.35h120v18.17h-120V603.05Zm120-262.53v23h-120v-23h120Zm-120,312.92v-17h120v17h-120Zm120-342.2v20h-120v-20h-12.1V682.72h0a12.1,12.1,0,0,0,12.1-12.1v-7.93h120v20h0A15.69,15.69,0,0,0,1474.88,667V311.24h-15.69Z"/><polygon class="m" points="1163.61 322.32 1162.41 322.32 1162.41 323.52 1162.41 330.64 1162.41 331.84 1163.61 331.84 1295.95 331.84 1297.15 331.84 1297.15 330.64 1297.15 323.52 1297.15 322.32 1295.95 322.32 1163.61 322.32"/><polygon class="m" points="1163.61 355.47 1162.41 355.47 1162.41 356.67 1162.41 363.79 1162.41 364.99 1163.61 364.99 1295.95 364.99 1297.15 364.99 1297.15 363.79 1297.15 356.67 1297.15 355.47 1295.95 355.47 1163.61 355.47"/><polygon class="m" points="1163.61 388.61 1162.41 388.61 1162.41 389.81 1162.41 396.94 1162.41 398.13 1163.61 398.13 1295.95 398.13 1297.15 398.13 1297.15 396.94 1297.15 389.81 1297.15 388.61 1295.95 388.61 1163.61 388.61"/><polygon class="m" points="1163.61 421.76 1162.41 421.76 1162.41 422.96 1162.41 430.08 1162.41 431.28 1163.61 431.28 1295.95 431.28 1297.15 431.28 1297.15 430.08 1297.15 422.96 1297.15 421.76 1295.95 421.76 1163.61 421.76"/><polygon class="m" points="1163.61 454.91 1162.41 454.91 1162.41 456.11 1162.41 463.23 1162.41 464.43 1163.61 464.43 1295.95 464.43 1297.15 464.43 1297.15 463.23 1297.15 456.11 1297.15 454.91 1295.95 454.91 1163.61 454.91"/><polygon class="m" points="1163.61 488.06 1162.41 488.06 1162.41 489.25 1162.41 496.38 1162.41 497.57 1163.61 497.57 1295.95 497.57 1297.15 497.57 1297.15 496.38 1297.15 489.25 1297.15 488.06 1295.95 488.06 1163.61 488.06"/><polygon class="m" points="1163.61 521.2 1162.41 521.2 1162.41 522.4 1162.41 529.52 1162.41 530.72 1163.61 530.72 1295.95 530.72 1297.15 530.72 1297.15 529.52 1297.15 522.4 1297.15 521.2 1295.95 521.2 1163.61 521.2"/><polygon class="m" points="1163.61 554.35 1162.41 554.35 1162.41 555.55 1162.41 562.67 1162.41 563.87 1163.61 563.87 1295.95 563.87 1297.15 563.87 1297.15 562.67 1297.15 555.55 1297.15 554.35 1295.95 554.35 1163.61 554.35"/><polygon class="m" points="1163.61 587.5 1162.41 587.5 1162.41 588.7 1162.41 595.82 1162.41 597.02 1163.61 597.02 1295.95 597.02 1297.15 597.02 1297.15 595.82 1297.15 588.7 1297.15 587.5 1295.95 587.5 1163.61 587.5"/><polygon class="m" points="1163.61 620.64 1162.41 620.64 1162.41 621.84 1162.41 628.97 1162.41 630.16 1163.61 630.16 1295.95 630.16 1297.15 630.16 1297.15 628.97 1297.15 621.84 1297.15 620.64 1295.95 620.64 1163.61 620.64"/><polygon class="m" points="1163.61 653.79 1162.41 653.79 1162.41 654.99 1162.41 662.11 1162.41 663.31 1163.61 663.31 1295.95 663.31 1297.15 663.31 1297.15 662.11 1297.15 654.99 1297.15 653.79 1295.95 653.79 1163.61 653.79"/><polygon class="m" points="1458.97 322.32 1326.63 322.32 1325.43 322.32 1325.43 323.52 1325.43 330.64 1325.43 331.84 1326.63 331.84 1458.97 331.84 1460.17 331.84 1460.17 330.64 1460.17 323.52 1460.17 322.32 1458.97 322.32"/><polygon class="m" points="1326.63 355.47 1325.43 355.47 1325.43 356.67 1325.43 363.79 1325.43 364.99 1326.63 364.99 1458.97 364.99 1460.17 364.99 1460.17 363.79 1460.17 356.67 1460.17 355.47 1458.97 355.47 1326.63 355.47"/><polygon class="m" points="1326.63 388.61 1325.43 388.61 1325.43 389.81 1325.43 396.94 1325.43 398.13 1326.63 398.13 1458.97 398.13 1460.17 398.13 1460.17 396.94 1460.17 389.81 1460.17 388.61 1458.97 388.61 1326.63 388.61"/><polygon class="m" points="1326.63 421.76 1325.43 421.76 1325.43 422.96 1325.43 430.08 1325.43 431.28 1326.63 431.28 1458.97 431.28 1460.17 431.28 1460.17 430.08 1460.17 422.96 1460.17 421.76 1458.97 421.76 1326.63 421.76"/><polygon class="m" points="1326.63 454.91 1325.43 454.91 1325.43 456.11 1325.43 463.23 1325.43 464.43 1326.63 464.43 1458.97 464.43 1460.17 464.43 1460.17 463.23 1460.17 456.11 1460.17 454.91 1458.97 454.91 1326.63 454.91"/><polygon class="m" points="1326.63 488.06 1325.43 488.06 1325.43 489.25 1325.43 496.38 1325.43 497.57 1326.63 497.57 1458.97 497.57 1460.17 497.57 1460.17 496.38 1460.17 489.25 1460.17 488.06 1458.97 488.06 1326.63 488.06"/><polygon class="m" points="1326.63 521.2 1325.43 521.2 1325.43 522.4 1325.43 529.52 1325.43 530.72 1326.63 530.72 1458.97 530.72 1460.17 530.72 1460.17 529.52 1460.17 522.4 1460.17 521.2 1458.97 521.2 1326.63 521.2"/><polygon class="m" points="1326.63 554.35 1325.43 554.35 1325.43 555.55 1325.43 562.67 1325.43 563.87 1326.63 563.87 1458.97 563.87 1460.17 563.87 1460.17 562.67 1460.17 555.55 1460.17 554.35 1458.97 554.35 1326.63 554.35"/><polygon class="m" points="1326.63 587.5 1325.43 587.5 1325.43 588.7 1325.43 595.82 1325.43 597.02 1326.63 597.02 1458.97 597.02 1460.17 597.02 1460.17 595.82 1460.17 588.7 1460.17 587.5 1458.97 587.5 1326.63 587.5"/><polygon class="m" points="1326.63 620.64 1325.43 620.64 1325.43 621.84 1325.43 628.97 1325.43 630.16 1326.63 630.16 1458.97 630.16 1460.17 630.16 1460.17 628.97 1460.17 621.84 1460.17 620.64 1458.97 620.64 1326.63 620.64"/><polygon class="m" points="1326.63 653.79 1325.43 653.79 1325.43 654.99 1325.43 662.11 1325.43 663.31 1326.63 663.31 1458.97 663.31 1460.17 663.31 1460.17 662.11 1460.17 654.99 1460.17 653.79 1458.97 653.79 1326.63 653.79"/><g class="n"><polygon class="o" points="1161.61 554.35 1161.61 555.55 1161.61 562.67 1161.61 563.87 1163.06 563.87 1173.79 563.87 1173.79 554.35 1163.06 554.35 1161.61 554.35"/><polygon class="o" points="1161.61 521.2 1161.61 522.4 1161.61 529.52 1161.61 530.72 1163.06 530.72 1173.79 530.72 1173.79 521.2 1163.06 521.2 1161.61 521.2"/><polygon class="o" points="1173.79 653.79 1163.06 653.79 1161.61 653.79 1161.61 654.99 1161.61 662.11 1161.61 663.31 1163.06 663.31 1173.79 663.31 1173.79 653.79"/><polygon class="o" points="1161.61 587.5 1161.61 588.7 1161.61 595.82 1161.61 597.02 1163.06 597.02 1173.79 597.02 1173.79 587.5 1163.06 587.5 1161.61 587.5"/><polygon class="o" points="1161.61 488.06 1161.61 489.25 1161.61 496.38 1161.61 497.57 1163.06 497.57 1173.79 497.57 1173.79 488.06 1163.06 488.06 1161.61 488.06"/><polygon class="o" points="1161.61 620.64 1161.61 621.84 1161.61 628.97 1161.61 630.16 1163.06 630.16 1173.79 630.16 1173.79 620.64 1163.06 620.64 1161.61 620.64"/><polygon class="o" points="1161.61 322.32 1161.61 323.52 1161.61 330.64 1161.61 331.84 1163.06 331.84 1173.79 331.84 1173.79 322.32 1163.06 322.32 1161.61 322.32"/><polygon class="o" points="1161.61 355.47 1161.61 356.67 1161.61 363.79 1161.61 364.99 1163.06 364.99 1173.79 364.99 1173.79 355.47 1163.06 355.47 1161.61 355.47"/><polygon class="o" points="1161.61 388.61 1161.61 389.81 1161.61 396.94 1161.61 398.13 1163.06 398.13 1173.79 398.13 1173.79 388.61 1163.06 388.61 1161.61 388.61"/><polygon class="o" points="1161.61 421.76 1161.61 422.96 1161.61 430.08 1161.61 431.28 1163.06 431.28 1173.79 431.28 1173.79 421.76 1163.06 421.76 1161.61 421.76"/><polygon class="o" points="1161.61 454.91 1161.61 456.11 1161.61 463.23 1161.61 464.43 1163.06 464.43 1173.79 464.43 1173.79 454.91 1163.06 454.91 1161.61 454.91"/></g><g class="n"><polygon class="o" points="1323.76 554.35 1323.76 555.55 1323.76 562.67 1323.76 563.87 1325.21 563.87 1335.94 563.87 1335.94 554.35 1325.21 554.35 1323.76 554.35"/><polygon class="o" points="1323.76 521.2 1323.76 522.4 1323.76 529.52 1323.76 530.72 1325.21 530.72 1335.94 530.72 1335.94 521.2 1325.21 521.2 1323.76 521.2"/><polygon class="o" points="1335.94 653.79 1325.21 653.79 1323.76 653.79 1323.76 654.99 1323.76 662.11 1323.76 663.31 1325.21 663.31 1335.94 663.31 1335.94 653.79"/><polygon class="o" points="1323.76 587.5 1323.76 588.7 1323.76 595.82 1323.76 597.02 1325.21 597.02 1335.94 597.02 1335.94 587.5 1325.21 587.5 1323.76 587.5"/><polygon class="o" points="1323.76 488.06 1323.76 489.25 1323.76 496.38 1323.76 497.57 1325.21 497.57 1335.94 497.57 1335.94 488.06 1325.21 488.06 1323.76 488.06"/><polygon class="o" points="1323.76 620.64 1323.76 621.84 1323.76 628.97 1323.76 630.16 1325.21 630.16 1335.94 630.16 1335.94 620.64 1325.21 620.64 1323.76 620.64"/><polygon class="o" points="1323.76 322.32 1323.76 323.52 1323.76 330.64 1323.76 331.84 1325.21 331.84 1335.94 331.84 1335.94 322.32 1325.21 322.32 1323.76 322.32"/><polygon class="o" points="1323.76 355.47 1323.76 356.67 1323.76 363.79 1323.76 364.99 1325.21 364.99 1335.94 364.99 1335.94 355.47 1325.21 355.47 1323.76 355.47"/><polygon class="o" points="1323.76 388.61 1323.76 389.81 1323.76 396.94 1323.76 398.13 1325.21 398.13 1335.94 398.13 1335.94 388.61 1325.21 388.61 1323.76 388.61"/><polygon class="o" points="1323.76 421.76 1323.76 422.96 1323.76 430.08 1323.76 431.28 1325.21 431.28 1335.94 431.28 1335.94 421.76 1325.21 421.76 1323.76 421.76"/><polygon class="o" points="1323.76 454.91 1323.76 456.11 1323.76 463.23 1323.76 464.43 1325.21 464.43 1335.94 464.43 1335.94 454.91 1325.21 454.91 1323.76 454.91"/></g><rect class="p" x="1155.59" y="301.72" width="12.45" height="382.2" rx="6.22" ry="6.22"/><rect class="p" x="1291.53" y="301.72" width="12.45" height="382.2" rx="6.22" ry="6.22"/><rect class="p" x="1318.61" y="301.72" width="12.45" height="382.2" rx="6.22" ry="6.22"/><rect class="p" x="1454.55" y="301.72" width="12.45" height="382.2" rx="6.22" ry="6.22"/><path class="j" d="M637.54,555.79V536.42h120v19.37h-120Zm120,14V588h-120V569.83h120Zm-120-46.27v-23h120v23h-120Zm0-32.22v-23h120v23h-120Zm0-32.22v-23h120v23h-120Zm0-32.22V404h120v23h-120Zm0-32.22v-23h120v23h-120Zm0,207.35h120v18.17h-120V602.05Zm120-262.53v23h-120v-23h120Zm-120,312.92v-17h120v17h-120Zm120-342.2v20h-120v-20h-12.1V681.72h0a12.1,12.1,0,0,0,12.1-12.1v-7.93h120v20h0a13.29,13.29,0,0,0,13.29-13.29V310.24H757.57Z"/><path class="j" d="M799,555.79V536.42H919v19.37H799Zm120,14V588H799V569.83H919ZM799,523.57v-23H919v23H799Zm0-32.22v-23H919v23H799Zm0-32.22v-23H919v23H799Zm0-32.22V404H919v23H799Zm0-32.22v-23H919v23H799Zm0,207.35H919v18.17H799V602.05ZM919,339.52v23H799v-23H919ZM799,652.44v-17H919v17H799Zm120-342.2v20H799v-20h-12.1V681.72h0a12.1,12.1,0,0,0,12.1-12.1v-7.93H919v20h0A15.69,15.69,0,0,0,934.71,666V310.24H919Z"/><polygon class="m" points="623.53 322.32 622.33 322.32 622.33 323.52 622.33 330.64 622.33 331.84 623.53 331.84 755.88 331.84 757.07 331.84 757.07 330.64 757.07 323.52 757.07 322.32 755.88 322.32 623.53 322.32"/><polygon class="m" points="623.53 355.47 622.33 355.47 622.33 356.67 622.33 363.79 622.33 364.99 623.53 364.99 755.88 364.99 757.07 364.99 757.07 363.79 757.07 356.67 757.07 355.47 755.88 355.47 623.53 355.47"/><polygon class="m" points="623.53 388.61 622.33 388.61 622.33 389.81 622.33 396.94 622.33 398.13 623.53 398.13 755.88 398.13 757.07 398.13 757.07 396.94 757.07 389.81 757.07 388.61 755.88 388.61 623.53 388.61"/><polygon class="m" points="623.53 421.76 622.33 421.76 622.33 422.96 622.33 430.08 622.33 431.28 623.53 431.28 755.88 431.28 757.07 431.28 757.07 430.08 757.07 422.96 757.07 421.76 755.88 421.76 623.53 421.76"/><polygon class="m" points="623.53 454.91 622.33 454.91 622.33 456.11 622.33 463.23 622.33 464.43 623.53 464.43 755.88 464.43 757.07 464.43 757.07 463.23 757.07 456.11 757.07 454.91 755.88 454.91 623.53 454.91"/><polygon class="m" points="623.53 488.06 622.33 488.06 622.33 489.25 622.33 496.38 622.33 497.57 623.53 497.57 755.88 497.57 757.07 497.57 757.07 496.38 757.07 489.25 757.07 488.06 755.88 488.06 623.53 488.06"/><polygon class="m" points="623.53 521.2 622.33 521.2 622.33 522.4 622.33 529.52 622.33 530.72 623.53 530.72 755.88 530.72 757.07 530.72 757.07 529.52 757.07 522.4 757.07 521.2 755.88 521.2 623.53 521.2"/><polygon class="m" points="623.53 554.35 622.33 554.35 622.33 555.55 622.33 562.67 622.33 563.87 623.53 563.87 755.88 563.87 757.07 563.87 757.07 562.67 757.07 555.55 757.07 554.35 755.88 554.35 623.53 554.35"/><polygon class="m" points="623.53 587.5 622.33 587.5 622.33 588.7 622.33 595.82 622.33 597.02 623.53 597.02 755.88 597.02 757.07 597.02 757.07 595.82 757.07 588.7 757.07 587.5 755.88 587.5 623.53 587.5"/><polygon class="m" points="623.53 620.64 622.33 620.64 622.33 621.84 622.33 628.97 622.33 630.16 623.53 630.16 755.88 630.16 757.07 630.16 757.07 628.97 757.07 621.84 757.07 620.64 755.88 620.64 623.53 620.64"/><polygon class="m" points="623.53 653.79 622.33 653.79 622.33 654.99 622.33 662.11 622.33 663.31 623.53 663.31 755.88 663.31 757.07 663.31 757.07 662.11 757.07 654.99 757.07 653.79 755.88 653.79 623.53 653.79"/><polygon class="m" points="786.55 322.32 785.35 322.32 785.35 323.52 785.35 330.64 785.35 331.84 786.55 331.84 918.89 331.84 920.09 331.84 920.09 330.64 920.09 323.52 920.09 322.32 918.89 322.32 786.55 322.32"/><polygon class="m" points="786.55 355.47 785.35 355.47 785.35 356.67 785.35 363.79 785.35 364.99 786.55 364.99 918.89 364.99 920.09 364.99 920.09 363.79 920.09 356.67 920.09 355.47 918.89 355.47 786.55 355.47"/><polygon class="m" points="786.55 388.61 785.35 388.61 785.35 389.81 785.35 396.94 785.35 398.13 786.55 398.13 918.89 398.13 920.09 398.13 920.09 396.94 920.09 389.81 920.09 388.61 918.89 388.61 786.55 388.61"/><polygon class="m" points="786.55 421.76 785.35 421.76 785.35 422.96 785.35 430.08 785.35 431.28 786.55 431.28 918.89 431.28 920.09 431.28 920.09 430.08 920.09 422.96 920.09 421.76 918.89 421.76 786.55 421.76"/><polygon class="m" points="786.55 454.91 785.35 454.91 785.35 456.11 785.35 463.23 785.35 464.43 786.55 464.43 918.89 464.43 920.09 464.43 920.09 463.23 920.09 456.11 920.09 454.91 918.89 454.91 786.55 454.91"/><polygon class="m" points="786.55 488.06 785.35 488.06 785.35 489.25 785.35 496.38 785.35 497.57 786.55 497.57 918.89 497.57 920.09 497.57 920.09 496.38 920.09 489.25 920.09 488.06 918.89 488.06 786.55 488.06"/><polygon class="m" points="786.55 521.2 785.35 521.2 785.35 522.4 785.35 529.52 785.35 530.72 786.55 530.72 918.89 530.72 920.09 530.72 920.09 529.52 920.09 522.4 920.09 521.2 918.89 521.2 786.55 521.2"/><polygon class="m" points="786.55 554.35 785.35 554.35 785.35 555.55 785.35 562.67 785.35 563.87 786.55 563.87 918.89 563.87 920.09 563.87 920.09 562.67 920.09 555.55 920.09 554.35 918.89 554.35 786.55 554.35"/><polygon class="m" points="786.55 587.5 785.35 587.5 785.35 588.7 785.35 595.82 785.35 597.02 786.55 597.02 918.89 597.02 920.09 597.02 920.09 595.82 920.09 588.7 920.09 587.5 918.89 587.5 786.55 587.5"/><polygon class="m" points="786.55 620.64 785.35 620.64 785.35 621.84 785.35 628.97 785.35 630.16 786.55 630.16 918.89 630.16 920.09 630.16 920.09 628.97 920.09 621.84 920.09 620.64 918.89 620.64 786.55 620.64"/><polygon class="m" points="786.55 653.79 785.35 653.79 785.35 654.99 785.35 662.11 785.35 663.31 786.55 663.31 918.89 663.31 920.09 663.31 920.09 662.11 920.09 654.99 920.09 653.79 918.89 653.79 786.55 653.79"/><g class="n"><polygon class="o" points="622.33 554.35 622.33 555.55 622.33 562.67 622.33 563.87 623.78 563.87 634.51 563.87 634.51 554.35 623.78 554.35 622.33 554.35"/><polygon class="o" points="622.33 521.2 622.33 522.4 622.33 529.52 622.33 530.72 623.78 530.72 634.51 530.72 634.51 521.2 623.78 521.2 622.33 521.2"/><polygon class="o" points="634.51 653.79 623.78 653.79 622.33 653.79 622.33 654.99 622.33 662.11 622.33 663.31 623.78 663.31 634.51 663.31 634.51 653.79"/><polygon class="o" points="622.33 587.5 622.33 588.7 622.33 595.82 622.33 597.02 623.78 597.02 634.51 597.02 634.51 587.5 623.78 587.5 622.33 587.5"/><polygon class="o" points="622.33 488.06 622.33 489.25 622.33 496.38 622.33 497.57 623.78 497.57 634.51 497.57 634.51 488.06 623.78 488.06 622.33 488.06"/><polygon class="o" points="622.33 620.64 622.33 621.84 622.33 628.97 622.33 630.16 623.78 630.16 634.51 630.16 634.51 620.64 623.78 620.64 622.33 620.64"/><polygon class="o" points="622.33 322.32 622.33 323.52 622.33 330.64 622.33 331.84 623.78 331.84 634.51 331.84 634.51 322.32 623.78 322.32 622.33 322.32"/><polygon class="o" points="622.33 355.47 622.33 356.67 622.33 363.79 622.33 364.99 623.78 364.99 634.51 364.99 634.51 355.47 623.78 355.47 622.33 355.47"/><polygon class="o" points="622.33 388.61 622.33 389.81 622.33 396.94 622.33 398.13 623.78 398.13 634.51 398.13 634.51 388.61 623.78 388.61 622.33 388.61"/><polygon class="o" points="622.33 421.76 622.33 422.96 622.33 430.08 622.33 431.28 623.78 431.28 634.51 431.28 634.51 421.76 623.78 421.76 622.33 421.76"/><polygon class="o" points="622.33 454.91 622.33 456.11 622.33 463.23 622.33 464.43 623.78 464.43 634.51 464.43 634.51 454.91 623.78 454.91 622.33 454.91"/></g><g class="n"><polygon class="o" points="784.88 554.35 784.88 555.55 784.88 562.67 784.88 563.87 786.33 563.87 797.06 563.87 797.06 554.35 786.33 554.35 784.88 554.35"/><polygon class="o" points="784.88 521.2 784.88 522.4 784.88 529.52 784.88 530.72 786.33 530.72 797.06 530.72 797.06 521.2 786.33 521.2 784.88 521.2"/><polygon class="o" points="797.06 653.79 786.33 653.79 784.88 653.79 784.88 654.99 784.88 662.11 784.88 663.31 786.33 663.31 797.06 663.31 797.06 653.79"/><polygon class="o" points="784.88 587.5 784.88 588.7 784.88 595.82 784.88 597.02 786.33 597.02 797.06 597.02 797.06 587.5 786.33 587.5 784.88 587.5"/><polygon class="o" points="784.88 488.06 784.88 489.25 784.88 496.38 784.88 497.57 786.33 497.57 797.06 497.57 797.06 488.06 786.33 488.06 784.88 488.06"/><polygon class="o" points="784.88 620.64 784.88 621.84 784.88 628.97 784.88 630.16 786.33 630.16 797.06 630.16 797.06 620.64 786.33 620.64 784.88 620.64"/><polygon class="o" points="784.88 322.32 784.88 323.52 784.88 330.64 784.88 331.84 786.33 331.84 797.06 331.84 797.06 322.32 786.33 322.32 784.88 322.32"/><polygon class="o" points="784.88 355.47 784.88 356.67 784.88 363.79 784.88 364.99 786.33 364.99 797.06 364.99 797.06 355.47 786.33 355.47 784.88 355.47"/><polygon class="o" points="784.88 388.61 784.88 389.81 784.88 396.94 784.88 398.13 786.33 398.13 797.06 398.13 797.06 388.61 786.33 388.61 784.88 388.61"/><polygon class="o" points="784.88 421.76 784.88 422.96 784.88 430.08 784.88 431.28 786.33 431.28 797.06 431.28 797.06 421.76 786.33 421.76 784.88 421.76"/><polygon class="o" points="784.88 454.91 784.88 456.11 784.88 463.23 784.88 464.43 786.33 464.43 797.06 464.43 797.06 454.91 786.33 454.91 784.88 454.91"/></g><rect class="p" x="615.51" y="301.72" width="12.45" height="382.2" rx="6.22" ry="6.22"/><rect class="q" x="751.45" y="301.72" width="12.45" height="382.2" rx="6.22" ry="6.22"/><rect class="p" x="778.53" y="301.72" width="12.45" height="382.2" rx="6.22" ry="6.22"/><rect class="p" x="914.47" y="301.72" width="12.45" height="382.2" rx="6.22" ry="6.22"/><g class="r"><path class="j" d="M1672.83,555.79V536.42h120v19.37h-120Zm120,14V588h-120V569.83h120Zm-120-46.27v-23h120v23h-120Zm0-32.22v-23h120v23h-120Zm0-32.22v-23h120v23h-120Zm0-32.22V404h120v23h-120Zm0-32.22v-23h120v23h-120Zm0,207.35h120v18.17h-120V602.05Zm120-262.53v23h-120v-23h120Zm-120,312.92v-17h120v17h-120Zm120-342.2v20h-120v-20h-12.1V681.72h0a12.1,12.1,0,0,0,12.1-12.1v-7.93h120v20h0a13.29,13.29,0,0,0,13.29-13.29V310.24h-13.29Z"/><path class="j" d="M1834.28,555.79V536.42h120v19.37h-120Zm120,14V588h-120V569.83h120Zm-120-46.27v-23h120v23h-120Zm0-32.22v-23h120v23h-120Zm0-32.22v-23h120v23h-120Zm0-32.22V404h120v23h-120Zm0-32.22v-23h120v23h-120Zm0,207.35h120v18.17h-120V602.05Zm120-262.53v23h-120v-23h120Zm-120,312.92v-17h120v17h-120Zm120-342.2v20h-120v-20h-12.1V681.72h0a12.1,12.1,0,0,0,12.1-12.1v-7.93h120v20H1970V310.24h-15.69Z"/><polygon class="m" points="1658.82 322.32 1657.62 322.32 1657.62 323.52 1657.62 330.64 1657.62 331.84 1658.82 331.84 1791.16 331.84 1792.36 331.84 1792.36 330.64 1792.36 323.52 1792.36 322.32 1791.16 322.32 1658.82 322.32"/><polygon class="m" points="1658.82 355.47 1657.62 355.47 1657.62 356.67 1657.62 363.79 1657.62 364.99 1658.82 364.99 1791.16 364.99 1792.36 364.99 1792.36 363.79 1792.36 356.67 1792.36 355.47 1791.16 355.47 1658.82 355.47"/><polygon class="m" points="1658.82 388.61 1657.62 388.61 1657.62 389.81 1657.62 396.94 1657.62 398.13 1658.82 398.13 1791.16 398.13 1792.36 398.13 1792.36 396.94 1792.36 389.81 1792.36 388.61 1791.16 388.61 1658.82 388.61"/><polygon class="m" points="1658.82 421.76 1657.62 421.76 1657.62 422.96 1657.62 430.08 1657.62 431.28 1658.82 431.28 1791.16 431.28 1792.36 431.28 1792.36 430.08 1792.36 422.96 1792.36 421.76 1791.16 421.76 1658.82 421.76"/><polygon class="m" points="1658.82 454.91 1657.62 454.91 1657.62 456.11 1657.62 463.23 1657.62 464.43 1658.82 464.43 1791.16 464.43 1792.36 464.43 1792.36 463.23 1792.36 456.11 1792.36 454.91 1791.16 454.91 1658.82 454.91"/><polygon class="m" points="1658.82 488.06 1657.62 488.06 1657.62 489.25 1657.62 496.38 1657.62 497.57 1658.82 497.57 1791.16 497.57 1792.36 497.57 1792.36 496.38 1792.36 489.25 1792.36 488.06 1791.16 488.06 1658.82 488.06"/><polygon class="m" points="1658.82 521.2 1657.62 521.2 1657.62 522.4 1657.62 529.52 1657.62 530.72 1658.82 530.72 1791.16 530.72 1792.36 530.72 1792.36 529.52 1792.36 522.4 1792.36 521.2 1791.16 521.2 1658.82 521.2"/><polygon class="m" points="1658.82 554.35 1657.62 554.35 1657.62 555.55 1657.62 562.67 1657.62 563.87 1658.82 563.87 1791.16 563.87 1792.36 563.87 1792.36 562.67 1792.36 555.55 1792.36 554.35 1791.16 554.35 1658.82 554.35"/><polygon class="m" points="1658.82 587.5 1657.62 587.5 1657.62 588.7 1657.62 595.82 1657.62 597.02 1658.82 597.02 1791.16 597.02 1792.36 597.02 1792.36 595.82 1792.36 588.7 1792.36 587.5 1791.16 587.5 1658.82 587.5"/><polygon class="m" points="1658.82 620.64 1657.62 620.64 1657.62 621.84 1657.62 628.97 1657.62 630.16 1658.82 630.16 1791.16 630.16 1792.36 630.16 1792.36 628.97 1792.36 621.84 1792.36 620.64 1791.16 620.64 1658.82 620.64"/><polygon class="m" points="1658.82 652.79 1657.62 652.79 1657.62 653.99 1657.62 661.11 1657.62 662.31 1658.82 662.31 1791.16 662.31 1792.36 662.31 1792.36 661.11 1792.36 653.99 1792.36 652.79 1791.16 652.79 1658.82 652.79"/><polygon class="m" points="1821.83 322.32 1820.63 322.32 1820.63 323.52 1820.63 330.64 1820.63 331.84 1821.83 331.84 1954.18 331.84 1955.38 331.84 1955.38 330.64 1955.38 323.52 1955.38 322.32 1954.18 322.32 1821.83 322.32"/><polygon class="m" points="1821.83 355.47 1820.63 355.47 1820.63 356.67 1820.63 363.79 1820.63 364.99 1821.83 364.99 1954.18 364.99 1955.38 364.99 1955.38 363.79 1955.38 356.67 1955.38 355.47 1954.18 355.47 1821.83 355.47"/><polygon class="m" points="1821.83 388.61 1820.63 388.61 1820.63 389.81 1820.63 396.94 1820.63 398.13 1821.83 398.13 1954.18 398.13 1955.38 398.13 1955.38 396.94 1955.38 389.81 1955.38 388.61 1954.18 388.61 1821.83 388.61"/><polygon class="m" points="1821.83 421.76 1820.63 421.76 1820.63 422.96 1820.63 430.08 1820.63 431.28 1821.83 431.28 1954.18 431.28 1955.38 431.28 1955.38 430.08 1955.38 422.96 1955.38 421.76 1954.18 421.76 1821.83 421.76"/><polygon class="m" points="1821.83 454.91 1820.63 454.91 1820.63 456.11 1820.63 463.23 1820.63 464.43 1821.83 464.43 1954.18 464.43 1955.38 464.43 1955.38 463.23 1955.38 456.11 1955.38 454.91 1954.18 454.91 1821.83 454.91"/><polygon class="m" points="1821.83 488.06 1820.63 488.06 1820.63 489.25 1820.63 496.38 1820.63 497.57 1821.83 497.57 1954.18 497.57 1955.38 497.57 1955.38 496.38 1955.38 489.25 1955.38 488.06 1954.18 488.06 1821.83 488.06"/><polygon class="m" points="1821.83 521.2 1820.63 521.2 1820.63 522.4 1820.63 529.52 1820.63 530.72 1821.83 530.72 1954.18 530.72 1955.38 530.72 1955.38 529.52 1955.38 522.4 1955.38 521.2 1954.18 521.2 1821.83 521.2"/><polygon class="m" points="1821.83 554.35 1820.63 554.35 1820.63 555.55 1820.63 562.67 1820.63 563.87 1821.83 563.87 1954.18 563.87 1955.38 563.87 1955.38 562.67 1955.38 555.55 1955.38 554.35 1954.18 554.35 1821.83 554.35"/><polygon class="m" points="1821.83 587.5 1820.63 587.5 1820.63 588.7 1820.63 595.82 1820.63 597.02 1821.83 597.02 1954.18 597.02 1955.38 597.02 1955.38 595.82 1955.38 588.7 1955.38 587.5 1954.18 587.5 1821.83 587.5"/><polygon class="m" points="1821.83 620.64 1820.63 620.64 1820.63 621.84 1820.63 628.97 1820.63 630.16 1821.83 630.16 1954.18 630.16 1955.38 630.16 1955.38 628.97 1955.38 621.84 1955.38 620.64 1954.18 620.64 1821.83 620.64"/><polygon class="m" points="1821.83 652.79 1820.63 653.79 1820.63 654.99 1820.63 662.11 1820.63 663.31 1821.83 663.31 1954.18 663.31 1955.38 663.31 1955.38 662.11 1955.38 654.99 1955.38 653.79 1954.18 652.79 1821.83 652.79"/><g class="n"><polygon class="o" points="1657.62 554.35 1657.62 555.55 1657.62 562.67 1657.62 563.87 1659.07 563.87 1669.8 563.87 1669.8 554.35 1659.07 554.35 1657.62 554.35"/><polygon class="o" points="1657.62 521.2 1657.62 522.4 1657.62 529.52 1657.62 530.72 1659.07 530.72 1669.8 530.72 1669.8 521.2 1659.07 521.2 1657.62 521.2"/><polygon class="o" points="1669.8 653.79 1659.07 653.79 1657.62 653.79 1657.62 654.99 1657.62 662.11 1657.62 663.31 1659.07 663.31 1669.8 663.31 1669.8 653.79"/><polygon class="o" points="1657.62 587.5 1657.62 588.7 1657.62 595.82 1657.62 597.02 1659.07 597.02 1669.8 597.02 1669.8 587.5 1659.07 587.5 1657.62 587.5"/><polygon class="o" points="1657.62 488.06 1657.62 489.25 1657.62 496.38 1657.62 497.57 1659.07 497.57 1669.8 497.57 1669.8 488.06 1659.07 488.06 1657.62 488.06"/><polygon class="o" points="1657.62 620.64 1657.62 621.84 1657.62 628.97 1657.62 630.16 1659.07 630.16 1669.8 630.16 1669.8 620.64 1659.07 620.64 1657.62 620.64"/><polygon class="o" points="1657.62 322.32 1657.62 323.52 1657.62 330.64 1657.62 331.84 1659.07 331.84 1669.8 331.84 1669.8 322.32 1659.07 322.32 1657.62 322.32"/><polygon class="o" points="1657.62 355.47 1657.62 356.67 1657.62 363.79 1657.62 364.99 1659.07 364.99 1669.8 364.99 1669.8 355.47 1659.07 355.47 1657.62 355.47"/><polygon class="o" points="1657.62 388.61 1657.62 389.81 1657.62 396.94 1657.62 398.13 1659.07 398.13 1669.8 398.13 1669.8 388.61 1659.07 388.61 1657.62 388.61"/><polygon class="o" points="1657.62 421.76 1657.62 422.96 1657.62 430.08 1657.62 431.28 1659.07 431.28 1669.8 431.28 1669.8 421.76 1659.07 421.76 1657.62 421.76"/><polygon class="o" points="1657.62 454.91 1657.62 456.11 1657.62 463.23 1657.62 464.43 1659.07 464.43 1669.8 464.43 1669.8 454.91 1659.07 454.91 1657.62 454.91"/></g><g class="n"><polygon class="o" points="1820.16 554.35 1820.16 555.55 1820.16 562.67 1820.16 563.87 1821.62 563.87 1832.35 563.87 1832.35 554.35 1821.62 554.35 1820.16 554.35"/><polygon class="o" points="1820.16 521.2 1820.16 522.4 1820.16 529.52 1820.16 530.72 1821.62 530.72 1832.35 530.72 1832.35 521.2 1821.62 521.2 1820.16 521.2"/><polygon class="o" points="1832.35 653.79 1821.62 653.79 1820.16 653.79 1820.16 654.99 1820.16 662.11 1820.16 663.31 1821.62 663.31 1832.35 663.31 1832.35 653.79"/><polygon class="o" points="1820.16 587.5 1820.16 588.7 1820.16 595.82 1820.16 597.02 1821.62 597.02 1832.35 597.02 1832.35 587.5 1821.62 587.5 1820.16 587.5"/><polygon class="o" points="1820.16 488.06 1820.16 489.25 1820.16 496.38 1820.16 497.57 1821.62 497.57 1832.35 497.57 1832.35 488.06 1821.62 488.06 1820.16 488.06"/><polygon class="o" points="1820.16 620.64 1820.16 621.84 1820.16 628.97 1820.16 630.16 1821.62 630.16 1832.35 630.16 1832.35 620.64 1821.62 620.64 1820.16 620.64"/><polygon class="o" points="1820.16 322.32 1820.16 323.52 1820.16 330.64 1820.16 331.84 1821.62 331.84 1832.35 331.84 1832.35 322.32 1821.62 322.32 1820.16 322.32"/><polygon class="o" points="1820.16 355.47 1820.16 356.67 1820.16 363.79 1820.16 364.99 1821.62 364.99 1832.35 364.99 1832.35 355.47 1821.62 355.47 1820.16 355.47"/><polygon class="o" points="1820.16 388.61 1820.16 389.81 1820.16 396.94 1820.16 398.13 1821.62 398.13 1832.35 398.13 1832.35 388.61 1821.62 388.61 1820.16 388.61"/><polygon class="o" points="1820.16 421.76 1820.16 422.96 1820.16 430.08 1820.16 431.28 1821.62 431.28 1832.35 431.28 1832.35 421.76 1821.62 421.76 1820.16 421.76"/><polygon class="o" points="1820.16 454.91 1820.16 456.11 1820.16 463.23 1820.16 464.43 1821.62 464.43 1832.35 464.43 1832.35 454.91 1821.62 454.91 1820.16 454.91"/></g><rect class="p" x="1650.79" y="301.72" width="12.45" height="382.2" rx="6.22" ry="6.22"/><rect class="q" x="1786.74" y="301.72" width="12.45" height="382.2" rx="6.22" ry="6.22"/><rect class="p" x="1813.81" y="301.72" width="12.45" height="382.2" rx="6.22" ry="6.22"/></g><path class="l" d="M-1,1H1920V612.85C1499.13,81.43,696.92-11-1,1Z"/><path class="l" d="M1521,1080H0L-5,937.5l247-260C280,776.38,1004,1088.89,1521,1080Z"/></g></svg>