<svg xmlns="http://www.w3.org/2000/svg" viewBox="0 0 341.63 269.88"><defs><style>.a,.c,.f{fill:#355c70;}.b{fill:#4d7484;}.c{opacity:0.4;}.d{fill:#dbd2c8;stroke:#ec5a25;}.d,.g,.i{stroke-miterlimit:10;stroke-width:10px;}.e{fill:#fff;}.f{opacity:0.2;}.g,.i{fill:none;}.g{stroke:#355c70;}.h{fill:#618793;}.i{stroke:#618793;}</style></defs><title>basket</title><path class="a" d="M138.34,1571.81l-61.8,51.44c-6.4,5.16-21.17-.27-21.17-8.49V1457.83c0-5.41,7.87-11.53,13.28-11.53l63.55,1.75a9.79,9.79,0,0,1,9.79,9.79v106.37A9.79,9.79,0,0,1,138.34,1571.81Z" transform="translate(-55.37 -1355.39)"/><path class="b" d="M143.84,1569.79l-61.45,49.55a12.58,12.58,0,0,1-20.48-9.79V1457.76a12.58,12.58,0,0,1,12.58-12.58h61.45a12.58,12.58,0,0,1,12.58,12.58V1560A12.58,12.58,0,0,1,143.84,1569.79Z" transform="translate(-55.37 -1355.39)"/><path class="c" d="M143.84,1569.79l-61.45,49.55a12.58,12.58,0,0,1-20.48-9.79s86.61-158.74,86.61-151.79V1560A12.58,12.58,0,0,1,143.84,1569.79Z" transform="translate(-55.37 -1355.39)"/><polygon class="a" points="191.64 100.99 49.85 214.39 49.85 136.1 191.64 56.05 191.64 100.99"/><path class="b" d="M260,1512.57l-87.4,78.9c-4.8,3.87-18.06-3-18.06-9.21V1366.76c0-4.06,12-10,16.07-10l84.78,2.62a7.34,7.34,0,0,1,7.34,7.34v140.1A7.34,7.34,0,0,1,260,1512.57Z" transform="translate(-55.37 -1355.39)"/><path class="d" d="M272.2,1513.55L178.69,1589a7.34,7.34,0,0,1-12-5.72V1367.74a7.34,7.34,0,0,1,7.34-7.34h93.51a7.34,7.34,0,0,1,7.34,7.34v140.1A7.34,7.34,0,0,1,272.2,1513.55Z" transform="translate(-55.37 -1355.39)"/><path class="e" d="M383.86,1482.78a2.37,2.37,0,0,0-1.8-.83H269.51a2.37,2.37,0,0,0-2.34,2.73l12.9,83.21,4,26.09a3.67,3.67,0,0,0,6.56,1.65l5.92-7.87,6.9,10.55a3.67,3.67,0,0,0,6.1.08l6.72-9.74,6.42,9.66a3.67,3.67,0,0,0,6.12,0l6.42-9.66,6.72,9.74a3.67,3.67,0,0,0,6.1-.07l6.9-10.56,5.92,7.87a3.67,3.67,0,0,0,6.57-1.65l3.85-24.86h0l13.09-84.44A2.37,2.37,0,0,0,383.86,1482.78ZM368.09,1559l-1.09-3.13,2.84-8.17Zm-70-72.31,5,14.25-6.76,19.44-7.23-20.79,4.49-12.9h4.55Zm20.18,0,4.77,13.72-7.58,21.8-7.4-21.27,5-14.25h5.25Zm19.63,0,5,14.51-7.31,21-7.58-21.8,4.77-13.72h5.07Zm21.61,0,3.51,10.1-8.3,23.85L348,1501.2l5-14.51h6.5Zm-14.6,62.18-6.76-19.44,7.31-21,6.76,19.44ZM318,1529.42l7.58-21.8,7.58,21.8-7.58,21.8Zm-19.18-1.83,6.76-19.44,7.4,21.27-6.76,19.44Zm-5,0-7.23,20.79-7.23-20.79,7.23-20.79Zm61,7.48,7.23,20.79-7.31,21-7.23-20.79Zm2.51-7.21,8.3-23.85,7.23,20.79-8.3,23.85Zm-61,7,7.4,21.27-7.23,20.79-7.4-21.27Zm12.42,21.27,6.76-19.44,7.58,21.8-6.76,19.44-0.75-2.14Zm26.94-19.44,6.76,19.44-7.58,21.8-6.76-19.44Zm29.89-47.06-1-2.89h2Zm-60,4.15-2.45-7H308Zm-23.5,56.2,0.36,1,1.61,4.64-0.76,2.18ZM348,1486.69l-2.54,7.3-0.47-1.35-2.07-6H348Zm-20.18,0-2.26,6.51-2.26-6.51h4.53Zm-39.3,0-1,2.78-1,2.91-0.72-2.06-1.26-3.63h4Zm-16.26,0h7.29l4.49,12.9-6.22,17.87-0.55,1.57Zm21.45,97-5.32,7.06-3.56-23,1.71-4.91v0l4.19,12.05,3,8.74Zm19.58,1-6.71,9.73-6.86-10.49a3.66,3.66,0,0,0-.49-0.6l7-20,0.54,1.55,6.79,19.52A3.47,3.47,0,0,0,313.3,1584.67Zm18.88,0.05-6.4,9.64-6.4-9.64a3.7,3.7,0,0,0-.31-0.4l6.5-18.68,2.44,7,4.19,12.06v0ZM345,1594.4l-6.71-9.72a3.68,3.68,0,0,0-.56-0.64l4.22-12.12,3-8.62,7.08,20.36-0.17.24Zm18.18-3.63-5.32-7.07a3.8,3.8,0,0,0-.38-0.43l7-20.19,1.14,3.29,0.91,2.61ZM374.75,1516l-6.69-19.23,3.51-10.1h7.72Z" transform="translate(-55.37 -1355.39)"/><path class="a" d="M251.13,1504.39l-38,30.67a3,3,0,0,1-4.86-2.32v-87.65a3,3,0,0,1,3-3h38a3,3,0,0,1,3,3v57A3,3,0,0,1,251.13,1504.39Z" transform="translate(-55.37 -1355.39)"/><path class="b" d="M254.62,1504.39l-38,30.67a3,3,0,0,1-4.86-2.32v-87.65a3,3,0,0,1,3-3h38a3,3,0,0,1,3,3v57A3,3,0,0,1,254.62,1504.39Z" transform="translate(-55.37 -1355.39)"/><path class="f" d="M272.2,1517.8l-92.64,74.54c-4.8,3.87-16.31-.42-16.31-6.59,0,0,116-223.93,116-219.87v137.48C281,1511.59,273.92,1516.41,272.2,1517.8Z" transform="translate(-55.37 -1355.39)"/><path class="g" d="M390.92,1488.88c-3.61,4.73-29.3,10.77-65.44,10.77s-61.69-6.15-65.44-10.77c-7.36-9.06,29.3-13.38,65.44-13.38S398.83,1478.52,390.92,1488.88Z" transform="translate(-55.37 -1355.39)"/><path class="a" d="M279.54,1500.08l-19.5-4.55-24.62.18a9.42,9.42,0,0,1-9.42-9.42h0a9.42,9.42,0,0,1,9.42-9.42H297l-34.2,5.93Z" transform="translate(-55.37 -1355.39)"/><path class="h" d="M226,1486.29h0a9.42,9.42,0,0,1,9.42-9.42h29.7l-8.94,9.21Z" transform="translate(-55.37 -1355.39)"/><ellipse class="i" cx="270.11" cy="128.25" rx="65.44" ry="10.77"/><path class="g" d="M260.25,1484.79c-1.93,1.49-2.33,3.18-.79,5.09,3.75,4.61,29.3,10.77,65.44,10.77,34.11,0,63.87-8.71,65.44-10.77,1.36-1.78,1.38-3.34.32-4.71" transform="translate(-55.37 -1355.39)"/><path class="i" d="M260.25,1484.79c-3.49,2.37,28.81,10.62,64.65,10.62,35.08,0,72.44-7.85,65.36-10.24" transform="translate(-55.37 -1355.39)"/></svg>